<svg xmlns="http://www.w3.org/2000/svg" viewBox="0 0 354.62 156"><defs><style>.cls-1{fill:#35404a;}.cls-2,.cls-4{fill:#1b8bf7;}.cls-3{fill:#fff;}.cls-4{font-size:28px;font-family:OpenSans-Bold, Open Sans;font-weight:700;letter-spacing:-0.03em;}</style></defs><title>annual-growth</title><g id="Layer_2" data-name="Layer 2"><g id="An_Accelerating_Industry" data-name="An Accelerating Industry"><path class="cls-1" d="M76.42,79l45.76-62.3c34.4,25,42.28,73.15,17.28,107.56A76.85,76.85,0,0,1,32,141.29c-34.4-25-42.47-73.15-17.47-107.55C29.56,13.09,51.42,2,76.42,2Z"/><path class="cls-2" d="M76.42,79V2c18,0,31.49,4.7,45.26,14.7Z"/><path class="cls-3" d="M123.43,77.67A46.94,46.94,0,1,1,76.49,30.74,46.94,46.94,0,0,1,123.43,77.67Z"/><text class="cls-4" transform="translate(47.52 87)">10%</text><path class="cls-1" d="M276.42,77.75l63.28-45.7a77.63,77.63,0,1,1-125.51,91.39C189,88.71,196.32,40.09,231.05,14.85,245,4.75,259.42,0,276.42,0Z"/><path class="cls-2" d="M276.42,77.75V0c26,0,47.75,11.21,62.9,32.05Z"/><path class="cls-3" d="M323.43,77.67a46.94,46.94,0,1,1-46.94-46.93A46.94,46.94,0,0,1,323.43,77.67Z"/><text class="cls-4" transform="translate(249.36 87)">15%</text></g></g></svg>