<svg xmlns="http://www.w3.org/2000/svg" viewBox="0 0 135.82 154.91"><defs><style>.cls-1{fill:#1b8bf7;}.cls-2{fill:#35404a;}</style></defs><title>consolidation</title><g id="Layer_2" data-name="Layer 2"><g id="Problems_Plaguing_The_Industry" data-name="Problems Plaguing The Industry"><path class="cls-1" d="M79.78,4h45.87c3.81,0,6.17,3.65,6.17,7V56H113.45l-.19,3.81c-.28,5.81-4.43,8.41-8.42,8.41-3.55,0-7.9-2.25-8.48-8.59L96,56H79.77l0-14.28c7.62-1,11.59-6.7,11.59-12.33,0-7.29-5.74-11.48-11.6-12.07V4m-4-4V21.52a15.13,15.13,0,0,1,2.59-.24c12,0,12.34,16.63-1,16.63-.49,0-1,0-1.53-.07l0,22.19h16.6c.76,8.26,6.63,12.22,12.47,12.22,6,0,12-4.2,12.42-12.21h18.56V11c0-5.85-4.32-11-10.17-11Z"/><path class="cls-2" d="M39.43,81.13c1.41-15.89-21.2-15.22-18.56-.22H1V31.51c0-5.85,5.28-10.6,11.13-10.6H61V43.47C75,41,76,63.7,61,61.08V81.39Z"/><path class="cls-1" d="M60,114.76c-15.11-2.12-13.85,19.7,0,17.44v22.28H10.18c-5.85,0-10.17-5.17-10.17-11v-49H22.14c-2.52-14.13,20.23-15,17.61,0H60.06Z"/><path class="cls-2" d="M81.48,94.62c-1.41,15.89,21.11,15.29,18.47.29h20v49.25c0,5.85-5.46,10.75-11.31,10.75H60V132.2c-14,2.52-15-20.23,0-17.61V94.28Z"/></g></g></svg>