<svg xmlns="http://www.w3.org/2000/svg" viewBox="0 0 175 143"><defs><style>.cls-1{fill:#1b8bf7;}.cls-2,.cls-5{fill:none;stroke-miterlimit:10;}.cls-2{stroke:#fff;stroke-width:4px;}.cls-3{fill:#fff;}.cls-4,.cls-6{fill:#35404a;}.cls-5{stroke:#1b8bf7;stroke-width:6px;}.cls-6{font-size:43.35px;font-family:OpenSans-Bold, Open Sans;font-weight:700;}</style></defs><title>fraud</title><g id="Layer_2" data-name="Layer 2"><g id="Problems_Plaguing_The_Industry" data-name="Problems Plaguing The Industry"><rect class="cls-1" x="56.37" y="-0.15" width="118.97" height="22.95"/><path class="cls-2" d="M128,68V52.17c0-6.93-5.07-12.55-12-12.55s-12,5.61-12,12.54V69"/><rect class="cls-3" x="94" y="66" width="44" height="29" rx="2.55" ry="2.55"/><path class="cls-4" d="M120.9,76.14a4.71,4.71,0,1,1-4.71-4.7A4.71,4.71,0,0,1,120.9,76.14Z"/><polygon class="cls-4" points="120.3 90 111.79 90 114.45 76 117.61 76 120.3 90"/><path class="cls-3" d="M72.24,16.83a2.39,2.39,0,1,1-2.39-2.39A2.39,2.39,0,0,1,72.24,16.83Z"/><path class="cls-3" d="M80.85,16.83a2.39,2.39,0,1,1-2.39-2.39A2.39,2.39,0,0,1,80.85,16.83Z"/><path class="cls-3" d="M89.46,16.83a2.39,2.39,0,1,1-2.39-2.39A2.39,2.39,0,0,1,89.46,16.83Z"/><path class="cls-5" d="M16.53,74.4A37,37,0,1,1,3,103"/><polyline class="cls-5" points="19 54 14.5 77 36 79.5"/><text class="cls-6" transform="translate(27.62 116.83)">$</text></g></g></svg>