<svg xmlns="http://www.w3.org/2000/svg" viewBox="0 0 155.53 166.03"><defs><style>.cls-1,.cls-6{fill:#35404a;}.cls-2,.cls-5{fill:none;stroke:#35404a;stroke-miterlimit:10;}.cls-2{stroke-width:6.5px;}.cls-3{fill:#1b8bf7;}.cls-4{fill:#edf3f7;}.cls-5{stroke-width:3.27px;}.cls-6{font-size:34.66px;font-family:OpenSans-Bold, Open Sans;font-weight:700;}</style></defs><title>incentives</title><g id="Layer_2" data-name="Layer 2"><g id="Problems_Plaguing_The_Industry" data-name="Problems Plaguing The Industry"><rect class="cls-1" x="7" y="56.21" width="102" height="74"/><path class="cls-2" d="M57.59,37.14C55,33.72,54.41,9.15,40.38,4.22c-13.19-4.64-23.3,8.36-17.2,17.69C30.46,33.07,50.2,37.44,57.59,37.14Z"/><path class="cls-2" d="M57.59,37.14c2.62-3.42,3.19-28,17.22-32.92C88-.42,98.11,12.58,92,21.91,84.73,33.07,65,37.44,57.59,37.14Z"/><rect class="cls-3" y="35.21" width="116" height="28"/><rect class="cls-4" x="53" y="35.21" width="9" height="95"/><polygon class="cls-3" points="155.53 127.56 152.09 131.02 154.8 135.07 150.75 137.78 152.61 142.29 148.11 144.16 149.05 148.94 144.27 149.89 144.27 154.76 139.39 154.77 138.44 159.55 133.66 158.61 131.79 163.11 127.29 161.25 124.58 165.29 120.52 162.59 117.07 166.03 113.62 162.59 109.57 165.29 106.85 161.25 102.35 163.11 100.48 158.6 95.7 159.55 94.75 154.77 89.88 154.76 89.87 149.89 85.09 148.94 86.03 144.15 81.53 142.29 83.39 137.78 79.34 135.07 82.05 131.02 78.61 127.56 82.05 124.11 79.34 120.06 83.39 117.35 81.53 112.84 86.03 110.97 85.09 106.19 89.87 105.24 89.88 100.37 94.75 100.36 95.7 95.58 100.48 96.53 102.35 92.02 106.86 93.89 109.57 89.84 113.62 92.55 117.07 89.11 120.52 92.55 124.58 89.84 127.29 93.89 131.79 92.02 133.66 96.53 138.44 95.59 139.4 100.37 144.27 100.37 144.27 105.25 149.05 106.2 148.11 110.98 152.61 112.84 150.75 117.35 154.8 120.06 152.09 124.11 155.53 127.56"/><path class="cls-5" d="M146.27,127.57a29.2,29.2,0,1,1-29.2-29.2A29.2,29.2,0,0,1,146.27,127.57Z"/><text class="cls-6" transform="translate(101.21 140.02)">%</text></g></g></svg>