<svg xmlns="http://www.w3.org/2000/svg" viewBox="0 0 805.1 387.11"><defs><style>.cls-1{fill:#35404a;}.cls-2{font-size:20px;font-family:OpenSans-Bold, Open Sans;font-weight:700;}.cls-2,.cls-4{fill:#fcfcfc;}.cls-3{fill:#389dff;}.cls-4{font-size:16px;font-family:OpenSans, Open Sans;}.cls-5,.cls-6,.cls-7,.cls-8,.cls-9{fill:none;stroke:#35404a;stroke-miterlimit:10;}.cls-6{stroke-dasharray:2.88 2.88;}.cls-7{stroke-dasharray:3.15 3.15;}.cls-8{stroke-dasharray:3.19 3.19;}.cls-9{stroke-width:3px;}</style></defs><title>roadmap</title><g id="Layer_2" data-name="Layer 2"><g id="Roadmap"><path class="cls-1" d="M146.63,160.29a41.82,41.82,0,1,1-41.82-41.81A41.82,41.82,0,0,1,146.63,160.29Z"/><path class="cls-1" d="M299,160.29a41.82,41.82,0,1,1-41.81-41.81A41.81,41.81,0,0,1,299,160.29Z"/><path class="cls-1" d="M448.21,160.29a41.82,41.82,0,1,1-41.81-41.81A41.81,41.81,0,0,1,448.21,160.29Z"/><path class="cls-1" d="M597.93,160.29a41.82,41.82,0,1,1-41.81-41.81A41.81,41.81,0,0,1,597.93,160.29Z"/><text class="cls-2" transform="translate(91.03 157.05)">Q2<tspan class="cls-3"><tspan x="-9.17" y="22">2018</tspan></tspan></text><text class="cls-4" transform="translate(18.62 272.89)">Opportunity to solve <tspan x="25.77" y="24">problems with </tspan><tspan x="-13.49" y="48">performance marketing </tspan><tspan x="-1.9" y="72">using blockchain and </tspan><tspan x="23.78" y="96">M&amp;A identified</tspan></text><line class="cls-5" x1="106.23" y1="182.9" x2="106.23" y2="184.4"/><line class="cls-6" x1="106.23" y1="187.28" x2="106.23" y2="237.77"/><line class="cls-5" x1="106.23" y1="239.21" x2="106.23" y2="240.71"/><path class="cls-1" d="M110.34,242.91a4.11,4.11,0,1,1-4.11-4.11A4.11,4.11,0,0,1,110.34,242.91Z"/><text class="cls-2" transform="translate(392.81 157.59)">Q4<tspan class="cls-3"><tspan x="-9.17" y="22">2018</tspan></tspan></text><text class="cls-4" transform="translate(305.35 271.89)">• Fulfill LOIs and acquire <tspan x="20.22" y="24">existing businesses</tspan><tspan x="25.82" y="48">• Launch platform </tspan><tspan x="45.44" y="72">development</tspan></text><line class="cls-5" x1="406.56" y1="184.08" x2="406.56" y2="185.58"/><line class="cls-7" x1="406.56" y1="188.73" x2="406.56" y2="237.63"/><line class="cls-5" x1="406.56" y1="239.21" x2="406.56" y2="240.71"/><path class="cls-1" d="M410.67,242.91a4.11,4.11,0,1,1-4.11-4.11A4.11,4.11,0,0,1,410.67,242.91Z"/><text class="cls-2" transform="translate(243.83 157.59)">Q3<tspan class="cls-3"><tspan x="-9.17" y="22">2018</tspan></tspan></text><text class="cls-4" transform="translate(152.63 15.42)">• LOIs executed with tools<tspan x="15.46" y="24">• MOUs executed with </tspan><tspan x="23.7" y="48">select CPA networks</tspan></text><line class="cls-5" x1="258.9" y1="118.27" x2="258.9" y2="116.77"/><line class="cls-8" x1="258.9" y1="113.58" x2="258.9" y2="83.3"/><line class="cls-5" x1="258.9" y1="81.7" x2="258.9" y2="80.2"/><path class="cls-1" d="M263,80.2a4.12,4.12,0,1,1-4.11-4.11A4.11,4.11,0,0,1,263,80.2Z"/><text class="cls-2" transform="translate(542.58 157.59)">Q1<tspan class="cls-3"><tspan x="-9.17" y="22">2019</tspan></tspan></text><text class="cls-4" transform="translate(466.6 63.92)">Release beta preview</text><line class="cls-5" x1="556.75" y1="118.27" x2="556.75" y2="116.77"/><line class="cls-8" x1="556.75" y1="113.58" x2="556.75" y2="83.3"/><line class="cls-5" x1="556.75" y1="81.7" x2="556.75" y2="80.2"/><path class="cls-1" d="M560.86,80.2a4.11,4.11,0,1,1-4.11-4.11A4.11,4.11,0,0,1,560.86,80.2Z"/><path class="cls-1" d="M742.21,160.29a41.82,41.82,0,1,1-41.81-41.81A41.81,41.81,0,0,1,742.21,160.29Z"/><text class="cls-2" transform="translate(686.81 157.59)">Q2<tspan class="cls-3"><tspan x="-9.17" y="22">2019</tspan></tspan></text><text class="cls-4" transform="translate(601.45 271.89)">Release PeerMotion 1.0</text><line class="cls-5" x1="700.56" y1="184.08" x2="700.56" y2="185.58"/><line class="cls-7" x1="700.56" y1="188.73" x2="700.56" y2="237.63"/><line class="cls-5" x1="700.56" y1="239.21" x2="700.56" y2="240.71"/><path class="cls-1" d="M704.67,242.91a4.11,4.11,0,1,1-4.11-4.11A4.11,4.11,0,0,1,704.67,242.91Z"/><line class="cls-9" x1="605.95" y1="162.61" x2="650.95" y2="162.61"/><polygon class="cls-1" points="643.72 171.2 642.28 169.66 649.87 162.61 642.28 155.56 643.72 154.02 652.95 162.61 643.72 171.2"/><line class="cls-9" x1="456.95" y1="162.61" x2="501.95" y2="162.61"/><polygon class="cls-1" points="494.72 171.2 493.28 169.66 500.87 162.61 493.28 155.56 494.72 154.02 503.95 162.61 494.72 171.2"/><line class="cls-9" x1="308.95" y1="162.61" x2="353.95" y2="162.61"/><polygon class="cls-1" points="346.72 171.2 345.28 169.66 352.87 162.61 345.28 155.56 346.72 154.02 355.95 162.61 346.72 171.2"/><line class="cls-9" x1="156.95" y1="162.61" x2="201.95" y2="162.61"/><polygon class="cls-1" points="194.72 171.2 193.28 169.66 200.87 162.61 193.28 155.56 194.72 154.02 203.95 162.61 194.72 171.2"/></g></g></svg>