<svg xmlns="http://www.w3.org/2000/svg" xmlns:xlink="http://www.w3.org/1999/xlink" viewBox="0 0 366.03 147.93"><defs><style>.cls-1,.cls-10,.cls-5,.cls-8{fill:#35404a;}.cls-2{font-size:21px;letter-spacing:-0.02em;}.cls-10,.cls-2,.cls-5,.cls-8{font-family:OpenSans-Bold, Open Sans;font-weight:700;}.cls-3{fill:#1b8bf7;}.cls-4,.cls-6,.cls-9{fill:none;}.cls-4,.cls-9{stroke:#35404a;stroke-miterlimit:10;}.cls-4{stroke-width:1.93px;}.cls-5{font-size:42.32px;letter-spacing:-0.03em;}.cls-6{stroke:#000;stroke-linecap:round;stroke-linejoin:round;stroke-width:3px;}.cls-7{clip-path:url(#clip-path);}.cls-8{font-size:37.51px;letter-spacing:-0.03em;}.cls-9{stroke-width:1.29px;}.cls-10{font-size:28.38px;letter-spacing:-0.02em;}</style><clipPath id="clip-path"><path id="_Clipping_Path_" data-name="&lt;Clipping Path&gt;" class="cls-1" d="M336.05,99.78V38.93c-49,0-72.76-25.73-116-25.73V74.56C259.52,74.56,288.05,99.78,336.05,99.78Z"/></clipPath></defs><title>roi</title><g id="Layer_2" data-name="Layer 2"><g id="An_Accelerating_Industry" data-name="An Accelerating Industry"><text class="cls-2" transform="translate(0 141.78)">$1 Spend</text><text class="cls-2" transform="translate(248.16 141.78)">$21 ROI</text><path class="cls-3" d="M85.05,53.88c-5.52,21-27.9,38-50,37.9s-35.52-17.11-30-38.1,27.91-37.95,50-37.9S90.58,32.9,85.05,53.88Z"/><path class="cls-4" d="M74.57,52.92C70.31,69.27,53,82.48,36,82.44S8.61,69.11,12.87,52.76,34.39,23.2,51.43,23.25,78.83,36.58,74.57,52.92Z"/><text class="cls-5" transform="matrix(1.02, 0, -0.25, 0.97, 26.23, 66.17)">1</text><path class="cls-6" d="M103.05,37.78c14.64-19.51,63.52-28.55,96.54-1.13"/><polygon points="184.11 40.39 183.84 37.4 198.57 36.09 196.19 21.48 199.15 21 202.05 38.78 184.11 40.39"/><path id="_Clipping_Path_2" data-name="&lt;Clipping Path&gt;" class="cls-1" d="M336.05,99.78V38.93c-49,0-72.76-25.73-116-25.73V74.56C259.52,74.56,288.05,99.78,336.05,99.78Z"/><g class="cls-7"><path class="cls-3" d="M301,58.6c0,13.33-9.15,24.13-20.42,24.13s-20.42-10.8-20.42-24.14,9.14-24.13,20.42-24.13S301,45.26,301,58.6Z"/><text class="cls-8" transform="matrix(0.87, 0.32, -0.08, 1, 269.89, 68.4)">$</text><circle class="cls-3" cx="219.6" cy="13.53" r="13.53"/><path class="cls-3" d="M234.33,74.78A13.54,13.54,0,1,1,220.8,61.25,13.54,13.54,0,0,1,234.33,74.78Z"/><path class="cls-3" d="M349.63,40a13.54,13.54,0,1,1-13.54-13.53A13.54,13.54,0,0,1,349.63,40Z"/><path class="cls-3" d="M350.83,98.8a13.54,13.54,0,1,1-13.54-13.53A13.53,13.53,0,0,1,350.83,98.8Z"/></g><path class="cls-3" d="M365.2,38c-3.7,14.07-18.72,25.45-33.53,25.41s-23.83-11.47-20.13-25.55,18.72-25.46,33.54-25.42S368.91,23.9,365.2,38Z"/><path class="cls-9" d="M358.17,37.33c-2.86,11-14.44,19.83-25.86,19.8s-18.38-8.94-15.52-19.9,14.43-19.83,25.86-19.8S361,26.37,358.17,37.33Z"/><text class="cls-10" transform="matrix(1.02, 0, -0.25, 0.97, 325.87, 46.12)">1</text></g></g></svg>