<svg xmlns="http://www.w3.org/2000/svg" viewBox="0 0 182.11 113.92"><defs><style>.cls-1,.cls-4{fill:none;stroke-linecap:round;stroke-linejoin:round;stroke-width:6px;}.cls-1{stroke:#35404a;}.cls-2{fill:#1b8bf7;}.cls-3{fill:#35404a;}.cls-4{stroke:#fff;}</style></defs><title>transparency</title><g id="Layer_2" data-name="Layer 2"><g id="Problems_Plaguing_The_Industry" data-name="Problems Plaguing The Industry"><path class="cls-1" d="M179.11,78.33s-31.25,32.59-69.79,32.59S39.53,78.33,39.53,78.33s31.24-36.1,69.79-36.1S179.11,78.33,179.11,78.33Z"/><path class="cls-2" d="M138.2,76.26a28.88,28.88,0,1,1-28.88-28.88A28.88,28.88,0,0,1,138.2,76.26Z"/><path class="cls-3" d="M122.42,76.26a13.1,13.1,0,1,1-13.1-13.1A13.1,13.1,0,0,1,122.42,76.26Z"/><path class="cls-2" d="M40.44,0A69.38,69.38,0,0,1,0,15.15C0,59.61,8.42,78.79,40.44,90.7,72.57,77.65,80.88,61,80.88,15.15A69.81,69.81,0,0,1,40.44,0Z"/><path class="cls-3" d="M40.35,83.78C15.36,73.81,7.2,58.9,6.48,21a75,75,0,0,0,34-13A75.89,75.89,0,0,0,74.41,21C73.77,59.33,66.4,72.64,40.35,83.78Z"/><polyline class="cls-4" points="27.15 48.53 39.05 59.34 55.27 34.47"/></g></g></svg>